<svg xmlns="http://www.w3.org/2000/svg" viewBox="0 0 1200 420" width="1200" height="420" role="img" aria-label="LunarFoundry: a composed grid assembles and a sweep resolves it"><title>LunarFoundry — DUNG30N5 × NOAERTH</title><desc>LunarFoundry. a composed surface meant to be read by a person. Motion: a composed grid assembles and a sweep resolves it. Identity family PRESENTATION resolved from typed web surface with 2 route handlers.</desc><rect width="1200" height="420" fill="#f7f5f0"/><text x="72" y="108" font-family="ui-monospace, SFMono-Regular, Menlo, Monaco, Consolas, 'Liberation Mono', monospace" font-size="11" letter-spacing="2.6" fill="#14171c4f">INFRASTRUCTURE · PRESENTATION</text><text x="72" y="168" font-family="-apple-system, BlinkMacSystemFont, 'Segoe UI', Inter, Helvetica, Arial, sans-serif" font-size="44" font-weight="660" letter-spacing="-1.2" fill="#14171c">LunarFoundry</text><text x="72" y="204" font-family="-apple-system, BlinkMacSystemFont, 'Segoe UI', Inter, Helvetica, Arial, sans-serif" font-size="15" fill="#14171ca8">Lunarfoundry MVP: space industrial planning simulator for</text><text x="72" y="226" font-family="-apple-system, BlinkMacSystemFont, 'Segoe UI', Inter, Helvetica, Arial, sans-serif" font-size="15" fill="#14171ca8">lunar resource extraction and processing.</text><text x="72" y="268" font-family="ui-monospace, SFMono-Regular, Menlo, Monaco, Consolas, 'Liberation Mono', monospace" font-size="11" fill="#14171c4f">HTTP API · file-backed JSON</text><rect x="72.0" y="292.0" width="70.0" height="34.0" rx="8" fill="#14171c" stroke="#14171c1f" stroke-width="1.1"></rect><rect x="72.0" y="292.0" width="2.5" height="34.0" rx="1.2" fill="mint" opacity="0.92"/><text x="107.0" y="314" font-family="ui-monospace, SFMono-Regular, Menlo, Monaco, Consolas, 'Liberation Mono', monospace" font-size="11" fill="#14171c" fill-opacity="0.82" text-anchor="middle">plans</text><rect x="158.0" y="292.0" width="75.0" height="34.0" rx="8" fill="#14171c" stroke="#14171c1f" stroke-width="1.1"></rect><rect x="158.0" y="292.0" width="2.5" height="34.0" rx="1.2" fill="violet" opacity="0.92"/><text x="195.5" y="314" font-family="ui-monospace, SFMono-Regular, Menlo, Monaco, Consolas, 'Liberation Mono', monospace" font-size="11" fill="#14171c" fill-opacity="0.82" text-anchor="middle">plans/[id]</text><rect x="726.0" y="84.0" width="412.0" height="252.0" rx="14" fill="mint" fill-opacity="0.06"/><rect x="729.0" y="87.0" width="406.0" height="246.0" rx="12" fill="none" stroke="mint" stroke-width="1" stroke-opacity="0.18"/><line x1="754.6" y1="109.9" x2="842.9" y2="105.7" stroke="#14171c1f" stroke-width="0.9"/><line x1="754.6" y1="109.9" x2="753.2" y2="180.9" stroke="#14171c1f" stroke-width="0.9"/><line x1="842.9" y1="105.7" x2="934.1" y2="103.6" stroke="#14171c1f" stroke-width="0.9"/><line x1="842.9" y1="105.7" x2="842.2" y2="177.2" stroke="#14171c1f" stroke-width="0.9"/><line x1="934.1" y1="103.6" x2="1026.7" y2="102.5" stroke="#14171c1f" stroke-width="0.9"/><line x1="934.1" y1="103.6" x2="934.1" y2="175.6" stroke="#14171c1f" stroke-width="0.9"/><line x1="1026.7" y1="102.5" x2="1126.4" y2="106.8" stroke="#14171c1f" stroke-width="0.9"/><line x1="1026.7" y1="102.5" x2="1026.7" y2="174.5" stroke="#14171c1f" stroke-width="0.9"/><line x1="1126.4" y1="106.8" x2="1126.4" y2="178.8" stroke="#14171c1f" stroke-width="0.9"/><line x1="753.2" y1="180.9" x2="842.2" y2="177.2" stroke="#14171c1f" stroke-width="0.9"/><line x1="753.2" y1="180.9" x2="746.8" y2="248.1" stroke="#14171c1f" stroke-width="0.9"/><line x1="842.2" y1="177.2" x2="934.1" y2="175.6" stroke="#14171c1f" stroke-width="0.9"/><line x1="842.2" y1="177.2" x2="845.1" y2="251.3" stroke="#14171c1f" stroke-width="0.9"/><line x1="934.1" y1="175.6" x2="1026.7" y2="174.5" stroke="#14171c1f" stroke-width="0.9"/><line x1="934.1" y1="175.6" x2="941.2" y2="252.9" stroke="#14171c1f" stroke-width="0.9"/><line x1="1026.7" y1="174.5" x2="1126.4" y2="178.8" stroke="#14171c1f" stroke-width="0.9"/><line x1="1026.7" y1="174.5" x2="1030.2" y2="249.2" stroke="#14171c1f" stroke-width="0.9"/><line x1="1126.4" y1="178.8" x2="1122.1" y2="247.6" stroke="#14171c1f" stroke-width="0.9"/><line x1="746.8" y1="248.1" x2="845.1" y2="251.3" stroke="#14171c1f" stroke-width="0.9"/><line x1="746.8" y1="248.1" x2="751.1" y2="323.3" stroke="#14171c1f" stroke-width="0.9"/><line x1="845.1" y1="251.3" x2="941.2" y2="252.9" stroke="#14171c1f" stroke-width="0.9"/><line x1="845.1" y1="251.3" x2="847.2" y2="324.9" stroke="#14171c1f" stroke-width="0.9"/><line x1="941.2" y1="252.9" x2="1030.2" y2="249.2" stroke="#14171c1f" stroke-width="0.9"/><line x1="941.2" y1="252.9" x2="942.6" y2="325.9" stroke="#14171c1f" stroke-width="0.9"/><line x1="1030.2" y1="249.2" x2="1122.1" y2="247.6" stroke="#14171c1f" stroke-width="0.9"/><line x1="1030.2" y1="249.2" x2="1037.3" y2="326.5" stroke="#14171c1f" stroke-width="0.9"/><line x1="1122.1" y1="247.6" x2="1125.6" y2="322.2" stroke="#14171c1f" stroke-width="0.9"/><line x1="751.1" y1="323.3" x2="847.2" y2="324.9" stroke="#14171c1f" stroke-width="0.9"/><line x1="847.2" y1="324.9" x2="942.6" y2="325.9" stroke="#14171c1f" stroke-width="0.9"/><line x1="942.6" y1="325.9" x2="1037.3" y2="326.5" stroke="#14171c1f" stroke-width="0.9"/><line x1="1037.3" y1="326.5" x2="1125.6" y2="322.2" stroke="#14171c1f" stroke-width="0.9"/><circle cx="754.6" cy="109.9" r="2.4" fill="mint" opacity="0.55"/><circle cx="842.9" cy="105.7" r="2.4" fill="mint" opacity="0.55"/><circle cx="934.1" cy="103.6" r="2.4" fill="mint" opacity="0.55"/><circle cx="1026.7" cy="102.5" r="2.4" fill="mint" opacity="0.55"/><circle cx="1126.4" cy="106.8" r="2.4" fill="mint" opacity="0.55"/><circle cx="753.2" cy="180.9" r="2.4" fill="mint" opacity="0.55"/><circle cx="842.2" cy="177.2" r="2.4" fill="mint" opacity="0.55"/><circle cx="934.1" cy="175.6" r="2.4" fill="mint" opacity="0.55"/><circle cx="1026.7" cy="174.5" r="2.4" fill="mint" opacity="0.55"/><circle cx="1126.4" cy="178.8" r="2.4" fill="mint" opacity="0.55"/><circle cx="746.8" cy="248.1" r="2.4" fill="mint" opacity="0.55"/><circle cx="845.1" cy="251.3" r="2.4" fill="mint" opacity="0.55"/><circle cx="941.2" cy="252.9" r="2.4" fill="mint" opacity="0.55"/><circle cx="1030.2" cy="249.2" r="2.4" fill="mint" opacity="0.55"/><circle cx="1122.1" cy="247.6" r="2.4" fill="mint" opacity="0.55"/><circle cx="751.1" cy="323.3" r="2.4" fill="mint" opacity="0.55"/><circle cx="847.2" cy="324.9" r="2.4" fill="mint" opacity="0.55"/><circle cx="942.6" cy="325.9" r="2.4" fill="mint" opacity="0.55"/><circle cx="1037.3" cy="326.5" r="2.4" fill="mint" opacity="0.55"/><circle cx="1125.6" cy="322.2" r="2.4" fill="mint" opacity="0.55"/><rect x="726.0" y="84.0" width="412.0" height="3" rx="1.5" fill="mint" opacity="0.35"/><path d="M1095.0 302.0 l9 -9 l9 9 l-9 9 z" fill="none" stroke="violet" stroke-width="1.4" opacity="0.6"/><rect x="754" y="118" width="50" height="52" rx="8" fill="mint" fill-opacity="0.08" stroke="mint" stroke-width="1" stroke-opacity="0.4" opacity="0.85"/><rect x="828" y="118" width="64" height="52" rx="8" fill="mint" fill-opacity="0.08" stroke="mint" stroke-width="1" stroke-opacity="0.4" opacity="0.85"/><rect x="902" y="118" width="64" height="52" rx="8" fill="mint" fill-opacity="0.08" stroke="mint" stroke-width="1" stroke-opacity="0.4" opacity="0.85"/><rect x="976" y="118" width="50" height="52" rx="8" fill="mint" fill-opacity="0.08" stroke="mint" stroke-width="1" stroke-opacity="0.4" opacity="0.85"/><rect x="1050" y="118" width="64" height="52" rx="8" fill="mint" fill-opacity="0.08" stroke="mint" stroke-width="1" stroke-opacity="0.4" opacity="0.85"/><rect x="754" y="184" width="64" height="52" rx="8" fill="mint" fill-opacity="0.08" stroke="mint" stroke-width="1" stroke-opacity="0.4" opacity="0.85"/><rect x="828" y="184" width="64" height="52" rx="8" fill="mint" fill-opacity="0.08" stroke="mint" stroke-width="1" stroke-opacity="0.4" opacity="0.85"/><rect x="902" y="184" width="50" height="52" rx="8" fill="mint" fill-opacity="0.08" stroke="mint" stroke-width="1" stroke-opacity="0.4" opacity="0.85"/><rect x="976" y="184" width="64" height="52" rx="8" fill="mint" fill-opacity="0.08" stroke="mint" stroke-width="1" stroke-opacity="0.4" opacity="0.85"/><rect x="1050" y="184" width="64" height="52" rx="8" fill="mint" fill-opacity="0.08" stroke="mint" stroke-width="1" stroke-opacity="0.4" opacity="0.85"/><rect x="754" y="250" width="64" height="52" rx="8" fill="mint" fill-opacity="0.08" stroke="mint" stroke-width="1" stroke-opacity="0.4" opacity="0.85"/><rect x="828" y="250" width="50" height="52" rx="8" fill="mint" fill-opacity="0.08" stroke="mint" stroke-width="1" stroke-opacity="0.4" opacity="0.85"/><rect x="902" y="250" width="64" height="52" rx="8" fill="mint" fill-opacity="0.08" stroke="mint" stroke-width="1" stroke-opacity="0.4" opacity="0.85"/><rect x="976" y="250" width="64" height="52" rx="8" fill="mint" fill-opacity="0.08" stroke="mint" stroke-width="1" stroke-opacity="0.4" opacity="0.85"/><rect x="1050" y="250" width="50" height="52" rx="8" fill="mint" fill-opacity="0.08" stroke="mint" stroke-width="1" stroke-opacity="0.4" opacity="0.85"/><line x1="1118" y1="110" x2="1118" y2="316" stroke="violet" stroke-width="1.4" opacity="0.14"/><text x="72" y="388" font-family="ui-monospace, SFMono-Regular, Menlo, Monaco, Consolas, 'Liberation Mono', monospace" font-size="10.5" letter-spacing="2.1" fill="#14171c4f">DUNG30N5 × NOAERTH · V6 · soft_tiles</text></svg>